<svg  xmlns="http://www.w3.org/2000/svg" xmlns:xlink="http://www.w3.org/1999/xlink" viewBox="0 0 64 64"><path d="M12 2C11.449 2 11 2.449 11 3L11 5C11 5.551 11.449 6 12 6C12.551 6 13 5.551 13 5L13 3C13 2.449 12.551 2 12 2 z M 17 2C16.449 2 16 2.449 16 3L16 5C16 5.551 16.449 6 17 6C17.551 6 18 5.551 18 5L18 3C18 2.449 17.551 2 17 2 z M 22 2C21.449 2 21 2.449 21 3L21 5C21 5.551 21.449 6 22 6C22.551 6 23 5.551 23 5L23 3C23 2.449 22.551 2 22 2 z M 27 2C26.449 2 26 2.449 26 3L26 5C26 5.551 26.449 6 27 6C27.551 6 28 5.551 28 5L28 3C28 2.449 27.551 2 27 2 z M 32 2C31.449 2 31 2.449 31 3L31 5C31 5.551 31.449 6 32 6C32.551 6 33 5.551 33 5L33 3C33 2.449 32.551 2 32 2 z M 37 2C36.449 2 36 2.449 36 3L36 5C36 5.551 36.449 6 37 6C37.551 6 38 5.551 38 5L38 3C38 2.449 37.551 2 37 2 z M 42 2C41.449 2 41 2.449 41 3L41 5C41 5.551 41.449 6 42 6C42.551 6 43 5.551 43 5L43 3C43 2.449 42.551 2 42 2 z M 47 2C46.449 2 46 2.449 46 3L46 5C46 5.551 46.449 6 47 6C47.551 6 48 5.551 48 5L48 3C48 2.449 47.551 2 47 2 z M 52 2C51.449 2 51 2.449 51 3L51 5C51 5.551 51.449 6 52 6C52.551 6 53 5.551 53 5L53 3C53 2.449 52.551 2 52 2 z M 13.216797 8.0390625C11.573397 8.0390625 10.225532 8.3292475 9.2890625 9.2421875C8.3526025 10.155128 8.0449219 11.494319 8.0449219 13.105469L8.0449219 48.949219C8.0449219 49.312999 8.05948 49.658894 8.09375 49.990234L8.09375 49.992188C8.15685 50.584767 8.22996 51.601157 9.03125 52.529297C9.14569 52.662797 9.1580225 52.658333 9.1953125 52.689453C9.2325925 52.720583 9.2694938 52.748807 9.3085938 52.779297C9.3867938 52.840267 9.4745069 52.906633 9.5605469 52.970703C9.7326269 53.098853 9.8945312 53.216797 9.8945312 53.216797L9.96875 53.269531L10.052734 53.308594C10.374744 53.462034 10.644274 53.600552 11.058594 53.763672L11.066406 53.767578C11.068706 53.768488 11.069866 53.768531 11.072266 53.769531L29.568359 61.322266C30.512084 61.742627 31.163155 61.988336 32.011719 61.974609C32.858828 61.98712 33.508929 61.742818 34.453125 61.322266L52.949219 53.769531L52.955078 53.767578C53.375028 53.602748 53.646133 53.463244 53.970703 53.308594L54.052734 53.269531L54.126953 53.216797C54.126953 53.216797 54.288858 53.098853 54.460938 52.970703C54.546977 52.906633 54.634691 52.840267 54.712891 52.779297C54.751991 52.748807 54.788892 52.720583 54.826172 52.689453C54.863452 52.658333 54.875794 52.662797 54.990234 52.529297C55.791524 51.601157 55.864634 50.584768 55.927734 49.992188L55.927734 49.990234C55.962084 49.659264 55.976563 49.312999 55.976562 48.949219L55.976562 13.105469C55.977043 11.494279 55.668812 10.155218 54.732422 9.2421875C53.796042 8.3291475 52.450041 8.0390625 50.806641 8.0390625L13.216797 8.0390625 z M 13.216797 10.039062L50.806641 10.039062C52.210241 10.039062 52.948818 10.296358 53.335938 10.673828C53.723058 11.051288 53.977022 11.746659 53.976562 13.105469L53.976562 48.949219C53.976562 49.257439 53.96315 49.536183 53.9375 49.783203L53.939453 49.78125C53.865853 50.4724 53.895675 50.716692 53.484375 51.201172C53.427195 51.245762 53.345085 51.308007 53.265625 51.367188C53.147315 51.455298 53.084573 51.501673 53.033203 51.539062C52.732963 51.683183 52.533363 51.785753 52.220703 51.908203L52.212891 51.910156L33.681641 59.476562L33.667969 59.482422C32.713549 59.908482 32.564633 59.988406 32.033203 59.978516L32.023438 59.978516L32.011719 59.978516L31.998047 59.978516L31.988281 59.978516C31.458341 59.989136 31.310419 59.908722 30.355469 59.482422L30.339844 59.476562L11.808594 51.910156L11.800781 51.908203C11.488101 51.785803 11.288521 51.683183 10.988281 51.539062C10.936911 51.501672 10.874169 51.455298 10.755859 51.367188C10.676399 51.308007 10.596242 51.245762 10.539062 51.201172C10.128282 50.717292 10.157194 50.472383 10.083984 49.783203L10.083984 49.78125C10.058374 49.53309 10.044922 49.256719 10.044922 48.949219L10.044922 13.105469C10.044922 11.746619 10.298257 11.051388 10.685547 10.673828C11.072837 10.296268 11.813197 10.039063 13.216797 10.039062 z M 42.638672 15.710938C40.165672 15.710938 38.943359 16.937828 38.943359 19.423828L38.943359 32.335938C38.943359 34.821937 40.165672 36.050781 42.638672 36.050781L44.146484 36.050781C46.620484 36.050781 47.841797 34.821937 47.841797 32.335938L47.841797 27.679688L44.857422 27.679688L44.857422 32.193359C44.857422 32.993359 44.487703 33.365234 43.720703 33.365234L43.150391 33.365234C42.354391 33.365234 41.984375 32.993359 41.984375 32.193359L41.984375 19.566406C41.984375 18.766406 42.354391 18.396484 43.150391 18.396484L43.662109 18.396484C44.430109 18.396484 44.800781 18.766406 44.800781 19.566406L44.800781 23.480469L47.785156 23.480469L47.785156 19.394531C47.785156 16.909531 46.590188 15.710938 44.117188 15.710938L42.638672 15.710938 z M 16.158203 15.880859L16.158203 35.878906L22.982422 35.878906L22.982422 33.107422L19.201172 33.107422L19.201172 27.080078L22.78125 27.080078L22.78125 24.308594L19.199219 24.308594L19.199219 18.652344L22.925781 18.652344L22.925781 15.880859L16.158203 15.880859 z M 24.449219 15.880859L24.449219 35.878906L27.492188 35.878906L27.492188 28.621094L29.226562 28.621094C31.699563 28.621094 32.921875 27.393203 32.921875 24.908203L32.921875 19.595703C32.921875 17.110703 31.699563 15.880859 29.226562 15.880859L24.449219 15.880859 z M 34.294922 15.880859L34.294922 35.878906L37.335938 35.878906L37.335938 15.880859L34.294922 15.880859 z M 27.492188 18.566406L28.742188 18.566406C29.510187 18.566406 29.880859 18.938281 29.880859 19.738281L29.880859 24.765625C29.880859 25.565625 29.510187 25.9375 28.742188 25.9375L27.492188 25.9375L27.492188 18.566406 z M 19.115234 40.638672L19.03125 40.646484L18.949219 40.654297L18.867188 40.662109L18.783203 40.671875L18.701172 40.6875L18.617188 40.695312L18.535156 40.712891L18.460938 40.738281L18.378906 40.755859L18.304688 40.779297L18.230469 40.796875L18.154297 40.830078L18.072266 40.855469L18.005859 40.880859L17.923828 40.921875L17.847656 40.955078L17.773438 40.988281L17.699219 41.029297L17.625 41.070312L17.550781 41.111328L17.484375 41.152344L17.419922 41.193359L17.353516 41.244141L17.287109 41.285156L17.220703 41.335938L17.162109 41.384766L17.097656 41.443359L17.039062 41.492188L16.980469 41.550781L16.923828 41.609375L16.873047 41.667969L16.814453 41.724609L16.765625 41.783203L16.716797 41.849609L16.666016 41.914062L16.617188 41.980469L16.574219 42.046875L16.533203 42.113281L16.492188 42.179688L16.451172 42.244141L16.410156 42.320312L16.376953 42.394531L16.34375 42.470703L16.310547 42.544922L16.277344 42.619141L16.244141 42.703125L16.220703 42.777344L16.195312 42.861328L16.171875 42.935547L16.154297 43.019531L16.128906 43.101562L16.111328 43.177734L16.103516 43.259766L16.087891 43.34375L16.078125 43.433594L16.070312 43.517578L16.070312 43.599609L16.0625 43.691406L16.0625 43.773438L16.0625 43.791016L16.0625 43.873047L16.0625 43.964844L16.070312 44.048828L16.078125 44.130859L16.087891 44.214844L16.095703 44.289062L16.111328 44.371094L16.119141 44.447266L16.136719 44.529297L16.162109 44.605469L16.179688 44.6875L16.203125 44.763672L16.220703 44.837891L16.253906 44.912109L16.277344 44.978516L16.310547 45.054688L16.34375 45.128906L16.376953 45.203125L16.410156 45.279297L16.451172 45.345703L16.492188 45.419922L16.533203 45.486328L16.574219 45.552734L16.623047 45.617188L16.666016 45.683594L16.716797 45.742188L16.765625 45.808594L16.814453 45.865234L16.873047 45.923828L16.931641 45.982422L16.988281 46.03125L17.046875 46.089844L17.105469 46.140625L17.162109 46.189453L17.228516 46.240234L17.294922 46.289062L17.361328 46.339844L17.427734 46.380859L17.492188 46.423828L17.566406 46.464844L17.632812 46.505859L17.707031 46.546875L17.78125 46.578125L17.855469 46.611328L17.931641 46.644531L18.013672 46.677734L18.087891 46.703125L18.160156 46.736328L18.236328 46.761719L18.318359 46.777344L18.392578 46.802734L18.476562 46.820312L18.550781 46.837891L18.632812 46.853516L18.716797 46.871094L18.798828 46.878906L18.882812 46.886719L18.964844 46.894531L19.054688 46.902344L19.136719 46.910156L19.220703 46.910156L19.310547 46.910156L19.402344 46.910156L19.492188 46.910156L19.583984 46.902344L19.667969 46.894531L19.757812 46.886719L19.841797 46.878906L19.931641 46.871094L20.015625 46.863281L20.097656 46.845703L20.181641 46.828125L20.255859 46.8125L20.337891 46.794922L20.412109 46.769531L20.494141 46.744141L20.568359 46.720703L20.644531 46.695312L20.71875 46.669922L20.792969 46.636719L20.875 46.603516L20.949219 46.570312L21.03125 46.537109L21.105469 46.496094L21.181641 46.462891L21.255859 46.421875L21.328125 46.380859L21.404297 46.339844L21.470703 46.296875L21.535156 46.255859L21.601562 46.205078L21.667969 46.164062L21.734375 46.115234L21.792969 46.072266L21.857422 46.023438L21.912109 45.970703L21.912109 45.888672L21.912109 45.804688L21.912109 45.722656L21.912109 45.646484L21.912109 45.564453L21.912109 45.480469L21.912109 45.398438L21.912109 45.314453L21.912109 45.232422L21.912109 45.15625L21.912109 45.074219L21.912109 44.990234L21.912109 44.908203L21.912109 44.824219L21.912109 44.742188L21.912109 44.658203L21.912109 44.583984L21.912109 44.501953L21.912109 44.417969L21.912109 44.335938L21.912109 44.251953L21.912109 44.169922L21.912109 44.085938L21.912109 44.011719L21.912109 43.927734L21.912109 43.845703L21.912109 43.761719L21.912109 43.679688L21.912109 43.595703L21.912109 43.521484L21.912109 43.4375L21.912109 43.355469L21.912109 43.271484L21.830078 43.271484L21.748047 43.271484L21.664062 43.271484L21.582031 43.271484L21.5 43.271484L21.417969 43.271484L21.335938 43.271484L21.251953 43.271484L21.169922 43.271484L21.085938 43.271484L21.003906 43.271484L20.921875 43.271484L20.837891 43.271484L20.755859 43.271484L20.671875 43.271484L20.589844 43.271484L20.507812 43.271484L20.423828 43.271484L20.341797 43.271484L20.259766 43.271484L20.175781 43.271484L20.09375 43.271484L20.009766 43.271484L19.927734 43.271484L19.845703 43.271484L19.761719 43.271484L19.679688 43.271484L19.595703 43.271484L19.513672 43.271484L19.431641 43.271484L19.347656 43.271484L19.265625 43.271484L19.181641 43.271484L19.181641 43.355469L19.181641 43.429688L19.181641 43.513672L19.181641 43.595703L19.181641 43.679688L19.181641 43.753906L19.181641 43.837891L19.181641 43.919922L19.181641 44.003906L19.181641 44.078125L19.181641 44.160156L19.181641 44.244141L19.181641 44.326172L19.181641 44.402344L19.181641 44.484375L19.265625 44.484375L19.339844 44.484375L19.423828 44.484375L19.505859 44.484375L19.589844 44.484375L19.664062 44.484375L19.746094 44.484375L19.830078 44.484375L19.912109 44.484375L19.988281 44.484375L20.070312 44.484375L20.154297 44.484375L20.236328 44.484375L20.3125 44.484375L20.394531 44.484375L20.394531 44.568359L20.394531 44.650391L20.394531 44.734375L20.394531 44.816406L20.394531 44.908203L20.394531 44.990234L20.394531 45.074219L20.394531 45.15625L20.394531 45.240234L20.328125 45.28125L20.271484 45.314453L20.197266 45.347656L20.130859 45.380859L20.056641 45.414062L19.982422 45.431641L19.900391 45.455078L19.816406 45.472656L19.734375 45.490234L19.650391 45.498047L19.560547 45.505859L19.46875 45.513672L19.369141 45.513672L19.279297 45.513672L19.1875 45.505859L19.105469 45.498047L19.021484 45.480469L18.939453 45.464844L18.855469 45.439453L18.773438 45.414062L18.697266 45.380859L18.623047 45.347656L18.550781 45.314453L18.484375 45.273438L18.417969 45.232422L18.351562 45.183594L18.285156 45.132812L18.228516 45.082031L18.179688 45.025391L18.121094 44.966797L18.070312 44.908203L18.021484 44.84375L17.980469 44.777344L17.939453 44.710938L17.898438 44.636719L17.865234 44.560547L17.832031 44.478516L17.808594 44.412109L17.783203 44.337891L17.765625 44.261719L17.748047 44.1875L17.732422 44.111328L17.724609 44.029297L17.716797 43.953125L17.707031 43.871094L17.707031 43.787109L17.707031 43.771484L17.707031 43.679688L17.716797 43.597656L17.724609 43.513672L17.740234 43.423828L17.757812 43.347656L17.775391 43.265625L17.800781 43.181641L17.832031 43.107422L17.857422 43.03125L17.890625 42.957031L17.933594 42.890625L17.974609 42.816406L18.015625 42.75L18.056641 42.691406L18.107422 42.626953L18.164062 42.568359L18.214844 42.509766L18.273438 42.460938L18.330078 42.410156L18.388672 42.359375L18.455078 42.318359L18.521484 42.275391L18.587891 42.234375L18.660156 42.201172L18.734375 42.169922L18.808594 42.144531L18.884766 42.119141L18.957031 42.101562L19.041016 42.085938L19.115234 42.076172L19.199219 42.068359L19.28125 42.068359L19.373047 42.068359L19.464844 42.076172L19.554688 42.085938L19.638672 42.09375L19.720703 42.109375L19.802734 42.126953L19.878906 42.144531L19.951172 42.169922L20.025391 42.193359L20.091797 42.21875L20.158203 42.251953L20.224609 42.285156L20.298828 42.326172L20.363281 42.367188L20.429688 42.410156L20.496094 42.451172L20.5625 42.501953L20.628906 42.542969L20.693359 42.601562L20.759766 42.650391L20.808594 42.585938L20.867188 42.527344L20.916016 42.460938L20.974609 42.394531L21.023438 42.328125L21.072266 42.271484L21.130859 42.205078L21.181641 42.138672L21.238281 42.072266L21.289062 42.015625L21.337891 41.949219L21.396484 41.882812L21.445312 41.824219L21.494141 41.759766L21.552734 41.693359L21.603516 41.626953L21.660156 41.568359L21.710938 41.503906L21.644531 41.453125L21.578125 41.394531L21.513672 41.345703L21.447266 41.294922L21.380859 41.253906L21.314453 41.203125L21.240234 41.160156L21.173828 41.119141L21.099609 41.078125L21.033203 41.037109L20.960938 41.005859L20.886719 40.964844L20.810547 40.931641L20.736328 40.898438L20.662109 40.865234L20.587891 40.839844L20.521484 40.814453L20.447266 40.798828L20.373047 40.773438L20.298828 40.755859L20.224609 40.738281L20.150391 40.722656L20.066406 40.705078L19.984375 40.6875L19.910156 40.679688L19.818359 40.662109L19.736328 40.654297L19.652344 40.654297L19.5625 40.646484L19.470703 40.638672L19.380859 40.638672L19.289062 40.638672L19.205078 40.638672L19.115234 40.638672 z M 45.164062 40.65625L45.080078 40.664062L44.998047 40.671875L44.914062 40.679688L44.832031 40.6875L44.757812 40.705078L44.675781 40.722656L44.599609 40.738281L44.525391 40.755859L44.460938 40.773438L44.384766 40.798828L44.302734 40.830078L44.220703 40.855469L44.144531 40.888672L44.070312 40.929688L43.996094 40.962891L43.921875 41.003906L43.855469 41.044922L43.789062 41.095703L43.724609 41.144531L43.666016 41.185547L43.599609 41.244141L43.542969 41.310547L43.484375 41.367188L43.425781 41.433594L43.376953 41.5L43.326172 41.566406L43.285156 41.640625L43.244141 41.716797L43.212891 41.791016L43.179688 41.865234L43.146484 41.941406L43.128906 42.015625L43.103516 42.091797L43.087891 42.166016L43.070312 42.240234L43.0625 42.324219L43.054688 42.398438L43.046875 42.482422L43.046875 42.564453L43.046875 42.582031L43.046875 42.673828L43.054688 42.763672L43.0625 42.847656L43.070312 42.929688L43.087891 43.005859L43.103516 43.087891L43.128906 43.154297L43.152344 43.228516L43.177734 43.294922L43.210938 43.353516L43.251953 43.427734L43.292969 43.494141L43.335938 43.552734L43.384766 43.609375L43.433594 43.667969L43.492188 43.726562L43.550781 43.783203L43.607422 43.833984L43.673828 43.875L43.740234 43.925781L43.814453 43.966797L43.880859 44.007812L43.962891 44.048828L44.037109 44.089844L44.119141 44.121094L44.203125 44.154297L44.285156 44.1875L44.376953 44.220703L44.451172 44.246094L44.525391 44.271484L44.599609 44.296875L44.681641 44.3125L44.757812 44.337891L44.839844 44.363281L44.921875 44.380859L45.005859 44.404297L45.087891 44.421875L45.179688 44.447266L45.261719 44.464844L45.353516 44.488281L45.435547 44.505859L45.519531 44.53125L45.59375 44.548828L45.667969 44.572266L45.734375 44.589844L45.792969 44.607422L45.890625 44.648438L45.974609 44.681641L46.048828 44.714844L46.113281 44.746094L46.179688 44.796875L46.238281 44.847656L46.279297 44.904297L46.3125 44.988281L46.320312 45.087891L46.320312 45.105469L46.3125 45.1875L46.287109 45.263672L46.255859 45.328125L46.205078 45.386719L46.140625 45.4375L46.082031 45.470703L46.015625 45.494141L45.941406 45.511719L45.867188 45.529297L45.785156 45.546875L45.693359 45.554688L45.595703 45.554688L45.511719 45.554688L45.421875 45.546875L45.337891 45.546875L45.255859 45.529297L45.164062 45.521484L45.080078 45.503906L44.998047 45.486328L44.914062 45.470703L44.841797 45.445312L44.757812 45.419922L44.675781 45.394531L44.599609 45.361328L44.525391 45.337891L44.451172 45.304688L44.376953 45.271484L44.302734 45.238281L44.236328 45.195312L44.162109 45.162109L44.095703 45.121094L44.021484 45.070312L43.955078 45.029297L43.882812 44.980469L43.816406 44.929688L43.742188 44.880859L43.675781 44.830078L43.626953 44.896484L43.568359 44.953125L43.517578 45.019531L43.460938 45.085938L43.410156 45.144531L43.361328 45.210938L43.302734 45.275391L43.253906 45.333984L43.195312 45.400391L43.146484 45.457031L43.089844 45.523438L43.039062 45.589844L42.990234 45.648438L42.931641 45.714844L42.882812 45.779297L42.824219 45.837891L42.773438 45.904297L42.839844 45.962891L42.898438 46.011719L42.964844 46.0625L43.029297 46.111328L43.095703 46.162109L43.162109 46.212891L43.228516 46.253906L43.294922 46.294922L43.369141 46.335938L43.435547 46.376953L43.509766 46.419922L43.583984 46.451172L43.658203 46.492188L43.732422 46.525391L43.806641 46.558594L43.890625 46.591797L43.964844 46.617188L44.046875 46.642578L44.121094 46.675781L44.205078 46.699219L44.287109 46.724609L44.361328 46.742188L44.445312 46.767578L44.527344 46.783203L44.609375 46.800781L44.693359 46.818359L44.775391 46.835938L44.857422 46.84375L44.941406 46.859375L45.03125 46.867188L45.115234 46.876953L45.197266 46.884766L45.289062 46.884766L45.371094 46.892578L45.455078 46.892578L45.546875 46.892578L45.636719 46.892578L45.720703 46.892578L45.802734 46.884766L45.894531 46.876953L45.976562 46.867188L46.050781 46.859375L46.134766 46.851562L46.216797 46.835938L46.291016 46.818359L46.365234 46.800781L46.447266 46.783203L46.521484 46.759766L46.603516 46.734375L46.6875 46.708984L46.769531 46.675781L46.853516 46.642578L46.927734 46.601562L47.001953 46.568359L47.076172 46.527344L47.142578 46.478516L47.207031 46.4375L47.273438 46.386719L47.332031 46.337891L47.398438 46.279297L47.447266 46.228516L47.505859 46.171875L47.554688 46.113281L47.595703 46.046875L47.644531 45.980469L47.6875 45.914062L47.728516 45.849609L47.761719 45.773438L47.794922 45.707031L47.828125 45.632812L47.853516 45.550781L47.869141 45.474609L47.894531 45.392578L47.910156 45.308594L47.919922 45.21875L47.927734 45.134766L47.935547 45.042969L47.935547 44.951172L47.935547 44.933594L47.935547 44.84375L47.927734 44.751953L47.919922 44.669922L47.902344 44.585938L47.886719 44.503906L47.869141 44.427734L47.845703 44.353516L47.820312 44.277344L47.787109 44.212891L47.744141 44.136719L47.703125 44.070312L47.654297 43.996094L47.605469 43.929688L47.546875 43.871094L47.488281 43.806641L47.423828 43.748047L47.357422 43.689453L47.291016 43.648438L47.224609 43.599609L47.158203 43.558594L47.085938 43.517578L47.009766 43.474609L46.927734 43.433594L46.84375 43.400391L46.761719 43.359375L46.671875 43.326172L46.597656 43.300781L46.523438 43.275391L46.439453 43.251953L46.365234 43.226562L46.283203 43.201172L46.199219 43.175781L46.117188 43.158203L46.025391 43.134766L45.943359 43.109375L45.851562 43.091797L45.761719 43.066406L45.669922 43.042969L45.578125 43.017578L45.496094 43L45.421875 42.974609L45.347656 42.957031L45.28125 42.933594L45.214844 42.916016L45.115234 42.882812L45.025391 42.849609L44.941406 42.816406L44.876953 42.775391L44.800781 42.734375L44.742188 42.677734L44.710938 42.626953L44.669922 42.535156L44.660156 42.427734L44.660156 42.410156L44.669922 42.328125L44.701172 42.253906L44.751953 42.177734L44.826172 42.111328L44.884766 42.078125L44.949219 42.046875L45.023438 42.029297L45.107422 42.011719L45.197266 41.994141L45.296875 41.994141L45.380859 41.994141L45.453125 42.003906L45.537109 42.011719L45.619141 42.019531L45.703125 42.035156L45.785156 42.052734L45.867188 42.070312L45.951172 42.095703L46.033203 42.119141L46.125 42.144531L46.191406 42.177734L46.265625 42.203125L46.330078 42.236328L46.40625 42.269531L46.472656 42.302734L46.546875 42.335938L46.611328 42.376953L46.685547 42.410156L46.751953 42.460938L46.818359 42.501953L46.892578 42.542969L46.957031 42.59375L47.007812 42.527344L47.048828 42.460938L47.097656 42.394531L47.148438 42.328125L47.197266 42.253906L47.238281 42.1875L47.289062 42.121094L47.337891 42.056641L47.378906 41.990234L47.427734 41.923828L47.478516 41.857422L47.519531 41.792969L47.568359 41.716797L47.619141 41.650391L47.667969 41.585938L47.710938 41.519531L47.759766 41.453125L47.693359 41.402344L47.626953 41.353516L47.560547 41.302734L47.494141 41.261719L47.419922 41.212891L47.353516 41.169922L47.279297 41.128906L47.205078 41.087891L47.138672 41.054688L47.064453 41.013672L46.982422 40.980469L46.908203 40.947266L46.833984 40.914062L46.759766 40.890625L46.677734 40.857422L46.603516 40.839844L46.529297 40.814453L46.445312 40.789062L46.371094 40.773438L46.289062 40.755859L46.205078 40.738281L46.130859 40.722656L46.048828 40.705078L45.957031 40.697266L45.873047 40.679688L45.783203 40.671875L45.701172 40.671875L45.609375 40.664062L45.519531 40.65625L45.427734 40.65625L45.337891 40.65625L45.246094 40.65625L45.164062 40.65625 z M 25.078125 40.693359L25.046875 40.767578L25.013672 40.84375L24.980469 40.917969L24.955078 41.001953L24.921875 41.076172L24.888672 41.150391L24.855469 41.226562L24.822266 41.300781L24.789062 41.376953L24.757812 41.458984L24.724609 41.533203L24.699219 41.609375L24.667969 41.683594L24.634766 41.759766L24.601562 41.833984L24.568359 41.917969L24.535156 41.992188L24.501953 42.066406L24.46875 42.142578L24.443359 42.216797L24.410156 42.292969L24.378906 42.375L24.345703 42.449219L24.3125 42.525391L24.279297 42.599609L24.246094 42.675781L24.212891 42.75L24.1875 42.832031L24.154297 42.908203L24.121094 42.982422L24.089844 43.058594L24.056641 43.132812L24.023438 43.207031L23.990234 43.291016L23.957031 43.365234L23.931641 43.439453L23.898438 43.515625L23.865234 43.589844L23.832031 43.664062L23.800781 43.740234L23.767578 43.822266L23.734375 43.898438L23.701172 43.972656L23.675781 44.048828L23.642578 44.123047L23.609375 44.197266L23.576172 44.28125L23.544922 44.355469L23.511719 44.431641L23.478516 44.505859L23.445312 44.580078L23.419922 44.65625L23.386719 44.738281L23.353516 44.814453L23.320312 44.888672L23.287109 44.964844L23.255859 45.039062L23.222656 45.113281L23.189453 45.197266L23.164062 45.271484L23.130859 45.347656L23.097656 45.421875L23.064453 45.496094L23.03125 45.572266L22.998047 45.654297L22.966797 45.730469L22.933594 45.804688L22.908203 45.880859L22.875 45.955078L22.841797 46.029297L22.808594 46.113281L22.775391 46.1875L22.742188 46.263672L22.710938 46.337891L22.677734 46.412109L22.652344 46.486328L22.619141 46.570312L22.585938 46.644531L22.552734 46.720703L22.519531 46.794922L22.603516 46.794922L22.685547 46.794922L22.769531 46.794922L22.851562 46.794922L22.943359 46.794922L23.025391 46.794922L23.107422 46.794922L23.191406 46.794922L23.273438 46.794922L23.357422 46.794922L23.439453 46.794922L23.523438 46.794922L23.605469 46.794922L23.689453 46.794922L23.779297 46.794922L23.861328 46.794922L23.945312 46.794922L24.027344 46.794922L24.111328 46.794922L24.193359 46.794922L24.226562 46.720703L24.251953 46.644531L24.285156 46.570312L24.318359 46.486328L24.34375 46.412109L24.376953 46.337891L24.408203 46.263672L24.433594 46.1875L24.466797 46.113281L24.5 46.037109L24.523438 45.962891L24.556641 45.880859L24.589844 45.804688L24.615234 45.730469L24.648438 45.654297L24.730469 45.654297L24.814453 45.654297L24.896484 45.654297L24.978516 45.654297L25.054688 45.654297L25.136719 45.654297L25.21875 45.654297L25.302734 45.654297L25.384766 45.654297L25.46875 45.654297L25.550781 45.654297L25.632812 45.654297L25.716797 45.654297L25.798828 45.654297L25.873047 45.654297L25.955078 45.654297L26.039062 45.654297L26.121094 45.654297L26.203125 45.654297L26.287109 45.654297L26.369141 45.654297L26.453125 45.654297L26.535156 45.654297L26.617188 45.654297L26.693359 45.654297L26.775391 45.654297L26.859375 45.654297L26.941406 45.654297L27.023438 45.654297L27.056641 45.730469L27.082031 45.804688L27.115234 45.880859L27.148438 45.962891L27.173828 46.037109L27.205078 46.113281L27.238281 46.1875L27.263672 46.263672L27.296875 46.337891L27.328125 46.412109L27.353516 46.486328L27.386719 46.570312L27.419922 46.644531L27.443359 46.720703L27.476562 46.794922L27.560547 46.794922L27.642578 46.794922L27.716797 46.794922L27.800781 46.794922L27.882812 46.794922L27.966797 46.794922L28.048828 46.794922L28.123047 46.794922L28.205078 46.794922L28.289062 46.794922L28.371094 46.794922L28.453125 46.794922L28.537109 46.794922L28.611328 46.794922L28.693359 46.794922L28.775391 46.794922L28.859375 46.794922L28.941406 46.794922L29.015625 46.794922L29.097656 46.794922L29.167969 46.794922L29.134766 46.720703L29.101562 46.644531L29.068359 46.570312L29.044922 46.486328L29.011719 46.412109L28.978516 46.337891L28.945312 46.263672L28.912109 46.1875L28.878906 46.113281L28.845703 46.029297L28.8125 45.955078L28.787109 45.880859L28.755859 45.804688L28.722656 45.730469L28.689453 45.654297L28.65625 45.572266L28.623047 45.496094L28.589844 45.421875L28.556641 45.347656L28.533203 45.271484L28.5 45.197266L28.466797 45.113281L28.433594 45.039062L28.400391 44.964844L28.367188 44.888672L28.335938 44.814453L28.302734 44.738281L28.277344 44.65625L28.244141 44.580078L28.210938 44.505859L28.177734 44.431641L28.144531 44.355469L28.111328 44.28125L28.078125 44.197266L28.046875 44.123047L28.021484 44.048828L27.988281 43.972656L27.955078 43.898438L27.921875 43.822266L27.888672 43.740234L27.855469 43.664062L27.822266 43.589844L27.789062 43.515625L27.765625 43.439453L27.732422 43.365234L27.699219 43.291016L27.667969 43.207031L27.634766 43.132812L27.601562 43.058594L27.568359 42.982422L27.535156 42.908203L27.509766 42.832031L27.476562 42.75L27.443359 42.675781L27.410156 42.599609L27.378906 42.525391L27.345703 42.449219L27.3125 42.375L27.279297 42.292969L27.253906 42.216797L27.220703 42.142578L27.1875 42.066406L27.154297 41.992188L27.121094 41.917969L27.089844 41.833984L27.056641 41.759766L27.023438 41.683594L26.998047 41.609375L26.966797 41.533203L26.933594 41.458984L26.900391 41.376953L26.867188 41.300781L26.833984 41.226562L26.800781 41.150391L26.767578 41.076172L26.742188 41.001953L26.710938 40.917969L26.677734 40.84375L26.644531 40.767578L26.611328 40.693359L26.527344 40.693359L26.453125 40.693359L26.371094 40.693359L26.287109 40.693359L26.205078 40.693359L26.130859 40.693359L26.048828 40.693359L25.964844 40.693359L25.882812 40.693359L25.808594 40.693359L25.726562 40.693359L25.642578 40.693359L25.560547 40.693359L25.486328 40.693359L25.402344 40.693359L25.320312 40.693359L25.236328 40.693359L25.162109 40.693359L25.078125 40.693359 z M 29.837891 40.744141L29.837891 40.828125L29.837891 40.910156L29.837891 40.994141L29.837891 41.076172L29.837891 41.160156L29.837891 41.242188L29.837891 41.326172L29.837891 41.408203L29.837891 41.492188L29.837891 41.574219L29.837891 41.658203L29.837891 41.740234L29.837891 41.824219L29.837891 41.90625L29.837891 41.990234L29.837891 42.072266L29.837891 42.15625L29.837891 42.238281L29.837891 42.314453L29.837891 42.396484L29.837891 42.480469L29.837891 42.5625L29.837891 42.646484L29.837891 42.728516L29.837891 42.8125L29.837891 42.894531L29.837891 42.978516L29.837891 43.060547L29.837891 43.144531L29.837891 43.226562L29.837891 43.310547L29.837891 43.392578L29.837891 43.476562L29.837891 43.558594L29.837891 43.642578L29.837891 43.724609L29.837891 43.808594L29.837891 43.890625L29.837891 43.974609L29.837891 44.056641L29.837891 44.140625L29.837891 44.222656L29.837891 44.306641L29.837891 44.388672L29.837891 44.472656L29.837891 44.554688L29.837891 44.638672L29.837891 44.720703L29.837891 44.804688L29.837891 44.886719L29.837891 44.970703L29.837891 45.052734L29.837891 45.136719L29.837891 45.21875L29.837891 45.294922L29.837891 45.376953L29.837891 45.460938L29.837891 45.542969L29.837891 45.626953L29.837891 45.708984L29.837891 45.792969L29.837891 45.875L29.837891 45.957031L29.837891 46.041016L29.837891 46.123047L29.837891 46.207031L29.837891 46.289062L29.837891 46.373047L29.837891 46.455078L29.837891 46.539062L29.837891 46.621094L29.837891 46.705078L29.837891 46.787109L29.921875 46.787109L30.003906 46.787109L30.087891 46.787109L30.169922 46.787109L30.251953 46.787109L30.335938 46.787109L30.417969 46.787109L30.501953 46.787109L30.583984 46.787109L30.667969 46.787109L30.75 46.787109L30.832031 46.787109L30.916016 46.787109L30.998047 46.787109L31.082031 46.787109L31.164062 46.787109L31.246094 46.787109L31.330078 46.787109L31.412109 46.787109L31.412109 46.705078L31.412109 46.621094L31.412109 46.539062L31.412109 46.455078L31.412109 46.371094L31.412109 46.289062L31.412109 46.205078L31.412109 46.123047L31.412109 46.039062L31.412109 45.957031L31.412109 45.882812L31.412109 45.798828L31.412109 45.716797L31.412109 45.632812L31.412109 45.550781L31.412109 45.466797L31.412109 45.382812L31.412109 45.300781L31.412109 45.216797L31.412109 45.134766L31.412109 45.050781L31.412109 44.96875L31.412109 44.884766L31.412109 44.802734L31.412109 44.71875L31.412109 44.636719L31.412109 44.552734L31.412109 44.470703L31.412109 44.386719L31.412109 44.302734L31.412109 44.220703L31.412109 44.136719L31.412109 44.0625L31.412109 43.978516L31.412109 43.896484L31.412109 43.8125L31.412109 43.730469L31.412109 43.646484L31.412109 43.564453L31.412109 43.480469L31.412109 43.398438L31.412109 43.314453L31.412109 43.232422L31.462891 43.298828L31.503906 43.373047L31.552734 43.439453L31.595703 43.513672L31.644531 43.580078L31.685547 43.654297L31.736328 43.722656L31.777344 43.796875L31.826172 43.863281L31.869141 43.9375L31.917969 44.003906L31.958984 44.078125L32.007812 44.144531L32.050781 44.220703L32.099609 44.285156L32.140625 44.361328L32.191406 44.427734L32.240234 44.501953L32.28125 44.568359L32.330078 44.642578L32.373047 44.708984L32.423828 44.783203L32.464844 44.849609L32.513672 44.925781L32.554688 44.990234L32.605469 45.066406L32.646484 45.132812L32.695312 45.207031L32.736328 45.273438L32.785156 45.349609L32.828125 45.414062L32.876953 45.490234L32.919922 45.556641L32.96875 45.632812L33.001953 45.632812L33.044922 45.566406L33.09375 45.490234L33.134766 45.425781L33.183594 45.359375L33.224609 45.283203L33.275391 45.21875L33.316406 45.150391L33.357422 45.076172L33.408203 45.009766L33.449219 44.943359L33.498047 44.876953L33.539062 44.802734L33.589844 44.736328L33.632812 44.669922L33.673828 44.595703L33.722656 44.529297L33.763672 44.462891L33.814453 44.388672L33.855469 44.322266L33.904297 44.255859L33.947266 44.179688L33.988281 44.113281L34.037109 44.048828L34.078125 43.972656L34.128906 43.90625L34.171875 43.841797L34.220703 43.775391L34.261719 43.699219L34.302734 43.634766L34.353516 43.568359L34.394531 43.492188L34.443359 43.427734L34.484375 43.361328L34.533203 43.285156L34.574219 43.220703L34.574219 43.302734L34.574219 43.386719L34.574219 43.46875L34.574219 43.552734L34.574219 43.636719L34.574219 43.71875L34.574219 43.802734L34.574219 43.884766L34.574219 43.96875L34.574219 44.052734L34.574219 44.134766L34.574219 44.21875L34.574219 44.300781L34.574219 44.384766L34.574219 44.46875L34.574219 44.550781L34.574219 44.634766L34.574219 44.716797L34.574219 44.800781L34.574219 44.882812L34.574219 44.966797L34.574219 45.050781L34.574219 45.132812L34.574219 45.216797L34.574219 45.298828L34.574219 45.382812L34.574219 45.466797L34.574219 45.548828L34.574219 45.632812L34.574219 45.714844L34.574219 45.798828L34.574219 45.880859L34.574219 45.964844L34.574219 46.046875L34.574219 46.130859L34.574219 46.212891L34.574219 46.296875L34.574219 46.378906L34.574219 46.462891L34.574219 46.546875L34.574219 46.628906L34.574219 46.712891L34.574219 46.794922L34.658203 46.794922L34.740234 46.794922L34.824219 46.794922L34.914062 46.794922L34.998047 46.794922L35.080078 46.794922L35.164062 46.794922L35.246094 46.794922L35.330078 46.794922L35.421875 46.794922L35.503906 46.794922L35.587891 46.794922L35.669922 46.794922L35.753906 46.794922L35.835938 46.794922L35.927734 46.794922L36.009766 46.794922L36.091797 46.794922L36.091797 46.787109L36.173828 46.787109L36.173828 46.705078L36.173828 46.621094L36.173828 46.539062L36.173828 46.455078L36.173828 46.373047L36.173828 46.289062L36.173828 46.207031L36.173828 46.123047L36.173828 46.041016L36.173828 45.957031L36.173828 45.875L36.173828 45.792969L36.173828 45.708984L36.173828 45.626953L36.173828 45.542969L36.173828 45.460938L36.173828 45.376953L36.173828 45.294922L36.173828 45.21875L36.173828 45.136719L36.173828 45.052734L36.173828 44.970703L36.173828 44.886719L36.173828 44.804688L36.173828 44.720703L36.173828 44.638672L36.173828 44.554688L36.173828 44.472656L36.173828 44.388672L36.173828 44.306641L36.173828 44.222656L36.173828 44.140625L36.173828 44.056641L36.173828 43.974609L36.173828 43.890625L36.173828 43.808594L36.173828 43.724609L36.173828 43.642578L36.173828 43.558594L36.173828 43.476562L36.173828 43.392578L36.173828 43.310547L36.173828 43.226562L36.173828 43.144531L36.173828 43.060547L36.173828 42.978516L36.173828 42.894531L36.173828 42.8125L36.173828 42.728516L36.173828 42.646484L36.173828 42.5625L36.173828 42.480469L36.173828 42.396484L36.173828 42.314453L36.173828 42.238281L36.173828 42.15625L36.173828 42.072266L36.173828 41.990234L36.173828 41.90625L36.173828 41.824219L36.173828 41.740234L36.173828 41.658203L36.173828 41.574219L36.173828 41.492188L36.173828 41.408203L36.173828 41.326172L36.173828 41.242188L36.173828 41.160156L36.173828 41.076172L36.173828 40.994141L36.173828 40.910156L36.173828 40.828125L36.173828 40.744141L36.091797 40.744141L36.009766 40.744141L35.933594 40.744141L35.851562 40.744141L35.769531 40.744141L35.685547 40.744141L35.611328 40.744141L35.527344 40.744141L35.445312 40.744141L35.363281 40.744141L35.287109 40.744141L35.205078 40.744141L35.123047 40.744141L35.039062 40.744141L34.964844 40.744141L34.882812 40.744141L34.800781 40.744141L34.716797 40.744141L34.642578 40.744141L34.558594 40.744141L34.476562 40.744141L34.435547 40.810547L34.394531 40.886719L34.34375 40.951172L34.302734 41.027344L34.261719 41.09375L34.21875 41.167969L34.169922 41.234375L34.128906 41.308594L34.087891 41.375L34.046875 41.441406L33.996094 41.515625L33.955078 41.580078L33.912109 41.65625L33.871094 41.722656L33.822266 41.796875L33.78125 41.861328L33.740234 41.927734L33.697266 42.001953L33.65625 42.068359L33.607422 42.142578L33.566406 42.208984L33.523438 42.283203L33.482422 42.349609L33.433594 42.423828L33.392578 42.490234L33.349609 42.556641L33.308594 42.630859L33.259766 42.697266L33.216797 42.771484L33.175781 42.837891L33.134766 42.912109L33.085938 42.978516L33.044922 43.052734L33.001953 43.119141L32.960938 43.052734L32.919922 42.978516L32.869141 42.912109L32.828125 42.837891L32.787109 42.771484L32.746094 42.697266L32.703125 42.630859L32.654297 42.556641L32.613281 42.490234L32.570312 42.423828L32.529297 42.349609L32.488281 42.283203L32.4375 42.208984L32.396484 42.142578L32.355469 42.068359L32.314453 42.001953L32.271484 41.927734L32.222656 41.861328L32.181641 41.796875L32.138672 41.722656L32.097656 41.65625L32.048828 41.580078L32.005859 41.515625L31.964844 41.441406L31.923828 41.375L31.882812 41.308594L31.832031 41.234375L31.792969 41.167969L31.751953 41.09375L31.708984 41.027344L31.667969 40.951172L31.617188 40.886719L31.576172 40.810547L31.535156 40.744141L31.451172 40.744141L31.369141 40.744141L31.294922 40.744141L31.212891 40.744141L31.128906 40.744141L31.046875 40.744141L30.972656 40.744141L30.888672 40.744141L30.806641 40.744141L30.722656 40.744141L30.648438 40.744141L30.566406 40.744141L30.482422 40.744141L30.400391 40.744141L30.326172 40.744141L30.242188 40.744141L30.160156 40.744141L30.078125 40.744141L30.003906 40.744141L29.921875 40.744141L29.837891 40.744141 z M 37.392578 40.751953L37.392578 40.835938L37.392578 40.917969L37.392578 41.001953L37.392578 41.083984L37.392578 41.167969L37.392578 41.25L37.392578 41.332031L37.392578 41.416016L37.392578 41.498047L37.392578 41.582031L37.392578 41.664062L37.392578 41.748047L37.392578 41.830078L37.392578 41.914062L37.392578 41.996094L37.392578 42.080078L37.392578 42.162109L37.392578 42.246094L37.392578 42.320312L37.392578 42.404297L37.392578 42.486328L37.392578 42.570312L37.392578 42.652344L37.392578 42.736328L37.392578 42.818359L37.392578 42.902344L37.392578 42.984375L37.392578 43.068359L37.392578 43.150391L37.392578 43.234375L37.392578 43.316406L37.392578 43.400391L37.392578 43.482422L37.392578 43.566406L37.392578 43.648438L37.392578 43.732422L37.392578 43.814453L37.392578 43.898438L37.392578 43.980469L37.392578 44.064453L37.392578 44.146484L37.392578 44.230469L37.392578 44.3125L37.392578 44.396484L37.392578 44.478516L37.392578 44.5625L37.392578 44.644531L37.392578 44.728516L37.392578 44.810547L37.392578 44.894531L37.392578 44.976562L37.392578 45.060547L37.392578 45.142578L37.392578 45.226562L37.392578 45.300781L37.392578 45.384766L37.392578 45.466797L37.392578 45.550781L37.392578 45.632812L37.392578 45.716797L37.392578 45.798828L37.392578 45.882812L37.392578 45.964844L37.392578 46.048828L37.392578 46.130859L37.392578 46.214844L37.392578 46.296875L37.392578 46.380859L37.392578 46.462891L37.392578 46.546875L37.392578 46.628906L37.392578 46.712891L37.392578 46.794922L37.476562 46.794922L37.558594 46.794922L37.642578 46.794922L37.724609 46.794922L37.806641 46.794922L37.890625 46.794922L37.972656 46.794922L38.056641 46.794922L38.138672 46.794922L38.230469 46.794922L38.302734 46.794922L38.386719 46.794922L38.46875 46.794922L38.550781 46.794922L38.632812 46.794922L38.716797 46.794922L38.798828 46.794922L38.882812 46.794922L38.964844 46.794922L39.048828 46.794922L39.130859 46.794922L39.214844 46.794922L39.296875 46.794922L39.380859 46.794922L39.462891 46.794922L39.544922 46.794922L39.628906 46.794922L39.710938 46.794922L39.802734 46.794922L39.884766 46.794922L39.96875 46.794922L40.050781 46.794922L40.134766 46.794922L40.216797 46.794922L40.300781 46.794922L40.382812 46.794922L40.466797 46.794922L40.548828 46.794922L40.632812 46.794922L40.714844 46.794922L40.798828 46.794922L40.880859 46.794922L40.962891 46.794922L41.044922 46.794922L41.128906 46.794922L41.210938 46.794922L41.294922 46.794922L41.376953 46.794922L41.46875 46.794922L41.550781 46.794922L41.632812 46.794922L41.716797 46.794922L41.798828 46.794922L41.882812 46.794922L41.964844 46.794922L42.048828 46.794922L42.130859 46.794922L42.130859 46.798828L42.226562 46.798828L42.226562 46.714844L42.226562 46.640625L42.226562 46.556641L42.226562 46.474609L42.226562 46.390625L42.226562 46.316406L42.226562 46.232422L42.226562 46.150391L42.226562 46.074219L42.226562 45.992188L42.226562 45.908203L42.226562 45.833984L42.226562 45.751953L42.226562 45.667969L42.226562 45.585938L42.226562 45.509766L42.226562 45.427734L42.142578 45.427734L42.060547 45.427734L41.976562 45.427734L41.894531 45.427734L41.810547 45.427734L41.728516 45.427734L41.644531 45.427734L41.5625 45.427734L41.480469 45.427734L41.388672 45.427734L41.306641 45.427734L41.222656 45.427734L41.140625 45.427734L41.056641 45.427734L40.974609 45.427734L40.892578 45.427734L40.810547 45.427734L40.726562 45.427734L40.644531 45.427734L40.560547 45.427734L40.478516 45.427734L40.394531 45.427734L40.3125 45.427734L40.228516 45.427734L40.146484 45.427734L40.0625 45.427734L39.980469 45.427734L39.896484 45.427734L39.814453 45.427734L39.722656 45.427734L39.640625 45.427734L39.556641 45.427734L39.474609 45.427734L39.392578 45.427734L39.308594 45.427734L39.226562 45.427734L39.142578 45.427734L39.060547 45.427734L38.976562 45.427734L38.976562 45.34375L38.976562 45.253906L38.976562 45.169922L38.976562 45.087891L38.976562 44.996094L38.976562 44.912109L38.976562 44.830078L38.976562 44.738281L38.976562 44.65625L38.976562 44.572266L38.976562 44.482422L38.976562 44.398438L39.060547 44.398438L39.142578 44.398438L39.226562 44.398438L39.308594 44.398438L39.392578 44.398438L39.474609 44.398438L39.556641 44.398438L39.640625 44.398438L39.714844 44.398438L39.798828 44.398438L39.880859 44.398438L39.962891 44.398438L40.046875 44.398438L40.128906 44.398438L40.212891 44.398438L40.294922 44.398438L40.376953 44.398438L40.458984 44.398438L40.542969 44.398438L40.623047 44.398438L40.707031 44.398438L40.789062 44.398438L40.873047 44.398438L40.955078 44.398438L41.039062 44.398438L41.121094 44.398438L41.195312 44.398438L41.277344 44.398438L41.361328 44.398438L41.443359 44.398438L41.525391 44.398438L41.609375 44.398438L41.691406 44.398438L41.775391 44.398438L41.857422 44.398438L41.857422 44.316406L41.857422 44.240234L41.857422 44.158203L41.857422 44.074219L41.857422 44L41.857422 43.917969L41.857422 43.833984L41.857422 43.751953L41.857422 43.675781L41.857422 43.59375L41.857422 43.509766L41.857422 43.435547L41.857422 43.351562L41.857422 43.269531L41.857422 43.193359L41.857422 43.111328L41.775391 43.111328L41.691406 43.111328L41.609375 43.111328L41.525391 43.111328L41.443359 43.111328L41.361328 43.111328L41.277344 43.111328L41.195312 43.111328L41.121094 43.111328L41.039062 43.111328L40.955078 43.111328L40.873047 43.111328L40.789062 43.111328L40.707031 43.111328L40.623047 43.111328L40.542969 43.111328L40.458984 43.111328L40.376953 43.111328L40.294922 43.111328L40.212891 43.111328L40.128906 43.111328L40.046875 43.111328L39.962891 43.111328L39.880859 43.111328L39.798828 43.111328L39.714844 43.111328L39.640625 43.111328L39.556641 43.111328L39.474609 43.111328L39.392578 43.111328L39.308594 43.111328L39.226562 43.111328L39.142578 43.111328L39.060547 43.111328L38.976562 43.111328L38.976562 43.027344L38.976562 42.945312L38.976562 42.861328L38.976562 42.779297L38.976562 42.695312L38.976562 42.613281L38.976562 42.537109L38.976562 42.455078L38.976562 42.371094L38.976562 42.289062L38.976562 42.205078L38.976562 42.123047L39.060547 42.123047L39.142578 42.123047L39.226562 42.123047L39.308594 42.123047L39.392578 42.123047L39.474609 42.123047L39.548828 42.123047L39.632812 42.123047L39.714844 42.123047L39.798828 42.123047L39.880859 42.123047L39.962891 42.123047L40.046875 42.123047L40.128906 42.123047L40.212891 42.123047L40.294922 42.123047L40.376953 42.123047L40.458984 42.123047L40.542969 42.123047L40.615234 42.123047L40.699219 42.123047L40.78125 42.123047L40.863281 42.123047L40.947266 42.123047L41.029297 42.123047L41.113281 42.123047L41.195312 42.123047L41.279297 42.123047L41.361328 42.123047L41.445312 42.123047L41.527344 42.123047L41.609375 42.123047L41.685547 42.123047L41.767578 42.123047L41.851562 42.123047L41.933594 42.123047L42.017578 42.123047L42.099609 42.123047L42.183594 42.123047L42.183594 42.039062L42.183594 41.964844L42.183594 41.882812L42.183594 41.798828L42.183594 41.716797L42.183594 41.640625L42.183594 41.558594L42.183594 41.474609L42.183594 41.400391L42.183594 41.316406L42.183594 41.234375L42.183594 41.158203L42.183594 41.076172L42.183594 40.992188L42.183594 40.910156L42.183594 40.835938L42.183594 40.751953L42.099609 40.751953L42.017578 40.751953L41.933594 40.751953L41.851562 40.751953L41.767578 40.751953L41.685547 40.751953L41.601562 40.751953L41.519531 40.751953L41.435547 40.751953L41.353516 40.751953L41.269531 40.751953L41.1875 40.751953L41.103516 40.751953L41.021484 40.751953L40.945312 40.751953L40.863281 40.751953L40.78125 40.751953L40.697266 40.751953L40.615234 40.751953L40.53125 40.751953L40.449219 40.751953L40.367188 40.751953L40.283203 40.751953L40.201172 40.751953L40.119141 40.751953L40.037109 40.751953L39.953125 40.751953L39.871094 40.751953L39.787109 40.751953L39.705078 40.751953L39.623047 40.751953L39.539062 40.751953L39.457031 40.751953L39.373047 40.751953L39.291016 40.751953L39.207031 40.751953L39.125 40.751953L39.042969 40.751953L38.960938 40.751953L38.876953 40.751953L38.794922 40.751953L38.710938 40.751953L38.628906 40.751953L38.552734 40.751953L38.470703 40.751953L38.388672 40.751953L38.304688 40.751953L38.222656 40.751953L38.138672 40.751953L38.056641 40.751953L37.972656 40.751953L37.890625 40.751953L37.806641 40.751953L37.724609 40.751953L37.642578 40.751953L37.558594 40.751953L37.476562 40.751953L37.392578 40.751953 z M 25.841797 42.615234L25.875 42.689453L25.900391 42.765625L25.933594 42.847656L25.966797 42.923828L25.990234 42.998047L26.023438 43.072266L26.056641 43.15625L26.082031 43.230469L26.115234 43.306641L26.148438 43.380859L26.171875 43.455078L26.205078 43.539062L26.230469 43.613281L26.263672 43.689453L26.296875 43.763672L26.320312 43.839844L26.353516 43.921875L26.386719 43.996094L26.412109 44.072266L26.445312 44.146484L26.478516 44.230469L26.503906 44.304688L26.542969 44.380859L26.458984 44.380859L26.376953 44.380859L26.292969 44.380859L26.210938 44.380859L26.128906 44.380859L26.044922 44.380859L25.962891 44.380859L25.878906 44.380859L25.804688 44.380859L25.722656 44.380859L25.638672 44.380859L25.556641 44.380859L25.472656 44.380859L25.390625 44.380859L25.306641 44.380859L25.224609 44.380859L25.142578 44.380859L25.175781 44.304688L25.199219 44.230469L25.232422 44.146484L25.265625 44.072266L25.289062 43.996094L25.322266 43.921875L25.355469 43.839844L25.388672 43.763672L25.414062 43.689453L25.447266 43.613281L25.480469 43.539062L25.503906 43.455078L25.537109 43.380859L25.570312 43.306641L25.595703 43.230469L25.628906 43.15625L25.660156 43.072266L25.693359 42.998047L25.71875 42.923828L25.751953 42.847656L25.783203 42.765625L25.808594 42.689453L25.841797 42.615234 z M 23.460938 54.115234L31.820312 56.990234L40.539062 54.115234L23.460938 54.115234 z"/></svg>